<?xml version="1.0" standalone="no"?>
<!DOCTYPE svg PUBLIC "-//W3C//DTD SVG 20010904//EN"
 "http://www.w3.org/TR/2001/REC-SVG-20010904/DTD/svg10.dtd">
<svg version="1.0" xmlns="http://www.w3.org/2000/svg"
 width="1563.000000pt" height="1563.000000pt" viewBox="0 0 1563.000000 1563.000000"
 preserveAspectRatio="xMidYMid meet">

<g transform="translate(0.000000,1563.000000) scale(0.100000,-0.100000)"
fill="#000000" stroke="none">
<path d="M7689 14215 c-179 -24 -483 -128 -634 -217 -211 -124 -305 -193 -441
-325 -253 -246 -438 -502 -633 -875 -68 -130 -207 -473 -238 -588 -59 -212
-74 -275 -97 -390 -13 -69 -27 -144 -31 -167 -7 -46 -7 -46 75 -58 69 -11 433
-92 535 -120 400 -108 634 -167 645 -160 10 6 26 73 56 229 31 168 46 222 106
381 48 128 183 401 239 481 45 65 177 202 258 266 87 70 159 107 284 150 223
75 506 37 717 -96 83 -52 197 -172 230 -241 95 -198 110 -465 46 -785 -34
-167 -75 -288 -151 -445 -35 -71 -68 -142 -74 -156 -5 -14 -61 -104 -124 -200
-140 -212 -295 -405 -323 -402 -10 1 -66 9 -122 18 -242 37 -609 45 -852 20
-339 -34 -497 -63 -673 -121 -162 -53 -398 -153 -455 -192 -15 -10 -51 -31
-80 -46 -84 -43 -290 -182 -377 -255 -44 -37 -111 -93 -150 -123 -84 -67 -208
-188 -291 -283 -83 -96 -255 -329 -295 -401 -18 -32 -47 -79 -65 -104 -39 -56
-105 -177 -135 -250 -13 -30 -33 -71 -46 -90 -13 -20 -43 -90 -67 -155 -25
-66 -60 -154 -80 -196 -19 -41 -58 -152 -86 -245 -28 -93 -65 -212 -81 -264
-29 -92 -77 -314 -118 -550 -64 -371 -90 -858 -62 -1189 42 -496 160 -910 368
-1296 96 -178 219 -369 297 -460 28 -33 69 -82 90 -110 81 -103 292 -305 446
-426 174 -136 419 -281 651 -383 165 -73 212 -90 489 -172 258 -76 273 -80
540 -134 351 -71 782 -85 1390 -45 123 8 228 11 231 7 4 -4 15 -79 24 -167 9
-88 19 -163 23 -167 4 -4 67 -17 140 -28 111 -17 135 -24 156 -45 13 -13 36
-27 50 -30 14 -3 37 -7 51 -10 16 -4 30 -17 39 -39 17 -40 62 -74 123 -92 65
-20 130 -17 208 7 57 17 88 20 209 17 l141 -3 3 526 2 526 93 89 c364 349 582
607 736 874 122 210 143 255 257 558 66 175 144 536 180 832 26 210 26 755 0
965 -19 157 -74 442 -99 510 l-14 40 -424 1 c-1719 6 -3274 16 -3378 22 l-125
7 73 85 c40 47 105 126 145 175 158 193 1267 1275 1308 1275 37 0 265 -142
408 -254 339 -267 666 -693 834 -1088 45 -107 34 -105 231 -43 94 30 251 78
350 109 502 152 609 186 619 196 12 12 -23 118 -86 265 -21 50 -62 144 -91
210 -91 213 -288 541 -462 771 -214 281 -494 567 -736 750 -56 42 -99 82 -99
92 0 9 38 74 85 144 103 154 136 209 188 313 21 44 55 105 75 135 83 126 283
598 340 805 125 447 114 921 -32 1338 -64 182 -73 201 -193 391 -178 281 -373
488 -598 634 -38 25 -95 62 -125 83 -63 42 -285 162 -375 201 -189 84 -396
147 -567 172 -148 23 -471 28 -599 11z m453 -35 c79 -7 177 -25 295 -54 249
-63 342 -95 508 -176 288 -142 533 -333 786 -617 198 -221 293 -383 374 -633
94 -294 121 -478 112 -770 -7 -230 -24 -318 -122 -645 -98 -328 -315 -760
-588 -1169 -47 -71 -84 -133 -81 -138 3 -5 21 -19 39 -31 158 -106 539 -476
757 -737 74 -89 349 -506 405 -615 94 -184 273 -605 273 -643 0 -14 -29 -26
-127 -56 -71 -21 -202 -62 -293 -91 -91 -29 -236 -74 -324 -100 -87 -25 -192
-60 -232 -76 -71 -29 -94 -30 -94 -7 0 10 -114 223 -178 333 -169 289 -515
683 -751 856 -89 65 -248 163 -334 205 l-56 27 -35 -27 c-53 -40 -347 -318
-630 -597 -138 -135 -284 -277 -324 -315 -183 -171 -592 -648 -592 -689 0 -21
44 -24 443 -37 268 -9 832 -12 1884 -10 826 1 1531 0 1567 -4 l64 -7 26 -101
c77 -308 112 -619 103 -915 -20 -654 -129 -1147 -357 -1606 -135 -273 -185
-352 -349 -560 -172 -216 -380 -428 -553 -565 l-28 -21 0 -278 c0 -153 -3
-386 -7 -519 l-6 -242 -144 0 c-112 0 -151 -4 -175 -16 -23 -12 -52 -15 -119
-12 -76 3 -91 6 -113 27 -14 13 -26 33 -28 44 -3 21 -23 35 -87 58 -19 7 -49
27 -68 44 -32 29 -41 32 -156 43 -67 7 -125 16 -129 20 -3 4 -16 81 -28 172
-12 91 -25 167 -28 170 -4 3 -70 3 -147 -1 -717 -32 -729 -33 -945 -20 -342
19 -712 70 -880 121 -52 16 -167 50 -255 75 -351 101 -543 187 -843 373 -201
125 -326 225 -508 407 -212 212 -281 293 -398 470 -174 261 -219 347 -310 587
-74 196 -110 319 -140 478 -57 307 -74 515 -70 870 6 426 58 859 145 1205 71
285 89 347 162 560 133 390 376 833 648 1181 103 132 411 431 534 519 199 142
557 339 745 410 84 31 246 81 396 120 213 57 784 70 1144 26 199 -25 239 -26
267 -6 38 27 270 333 344 455 65 105 192 353 218 425 39 105 109 337 126 420
22 106 31 339 16 435 -6 41 -25 116 -42 167 -78 236 -294 432 -555 505 -108
30 -367 32 -459 4 -177 -55 -389 -202 -533 -371 -168 -197 -261 -379 -372
-730 -50 -158 -90 -324 -90 -375 0 -18 -6 -33 -14 -36 -13 -5 -251 50 -506
116 -41 11 -202 52 -357 91 -266 67 -283 73 -283 94 0 46 43 274 75 402 77
301 269 738 441 1005 224 346 492 634 744 796 107 70 292 162 390 195 299 102
523 131 812 107z"/>
<path d="M7755 13970 c-131 -14 -280 -59 -475 -145 -100 -44 -261 -146 -291
-184 -11 -14 -23 -24 -26 -22 -7 5 -98 -65 -143 -110 -82 -82 -128 -137 -122
-145 4 -4 2 -4 -4 -1 -12 7 -64 -44 -140 -138 -166 -204 -358 -535 -464 -800
-87 -217 -126 -348 -176 -586 -4 -16 0 -30 10 -38 9 -8 96 -34 194 -58 97 -24
251 -62 340 -85 126 -31 169 -38 186 -30 22 10 50 87 92 252 48 194 200 512
320 673 222 296 504 497 759 541 176 31 518 7 611 -42 10 -5 66 -33 124 -61
127 -61 237 -147 343 -267 96 -108 138 -193 171 -339 85 -372 9 -853 -200
-1267 -69 -138 -255 -432 -377 -596 -68 -92 -130 -177 -136 -190 -23 -43 -92
-97 -125 -97 -17 -1 -35 2 -41 6 -5 4 -57 14 -115 23 -477 72 -974 59 -1345
-34 -126 -32 -344 -112 -490 -180 -182 -85 -487 -286 -670 -442 -228 -194
-525 -585 -713 -938 -119 -224 -307 -757 -376 -1065 -42 -186 -109 -602 -128
-790 -19 -199 -17 -669 5 -840 70 -550 268 -1059 567 -1456 219 -291 466 -529
715 -685 114 -72 405 -221 510 -261 266 -102 730 -228 915 -249 69 -8 169 -21
222 -30 75 -12 105 -14 129 -5 18 6 39 11 48 10 9 -1 5 -5 -9 -9 -19 -6 -11
-8 35 -10 33 -1 69 -4 80 -7 58 -17 545 -5 878 21 320 26 350 26 372 12 24
-16 24 -19 23 -149 -1 -72 2 -152 6 -175 9 -51 29 -62 140 -81 79 -14 121 -32
136 -61 9 -17 17 -19 51 -14 33 6 46 2 72 -16 18 -13 38 -32 45 -42 17 -23 28
-23 59 2 31 24 114 27 157 5 15 -8 30 -15 32 -15 2 0 4 208 4 463 l1 462 82
70 c45 38 117 106 160 150 43 44 83 85 89 90 53 47 128 133 128 145 0 14 33
50 45 50 23 0 161 170 247 305 194 306 305 555 408 920 12 44 29 100 36 125
16 54 48 237 66 375 9 67 13 227 13 485 0 380 0 387 -28 530 -38 197 -44 218
-70 232 -17 10 -283 12 -1282 11 -1204 -3 -1851 5 -2420 27 -143 6 -318 12
-390 13 l-130 2 2 26 c1 18 22 48 65 90 68 68 123 129 203 225 265 318 380
440 808 868 258 258 508 503 556 545 113 100 286 242 333 274 37 24 40 25 85
11 26 -8 88 -41 138 -73 49 -32 122 -77 162 -100 205 -118 490 -374 703 -631
101 -123 230 -317 311 -467 27 -50 56 -97 64 -103 21 -18 109 -4 240 36 61 19
151 45 200 59 97 26 213 67 245 87 11 7 20 23 20 35 0 24 -124 303 -174 391
-106 186 -289 467 -395 607 -64 84 -293 336 -383 421 -96 91 -230 195 -391
302 -70 47 -133 94 -139 105 -8 17 -2 31 40 91 86 122 277 416 341 526 94 159
244 475 310 649 104 275 143 427 172 671 22 185 -10 485 -71 670 -116 348
-317 665 -561 880 -145 127 -362 276 -514 352 -178 89 -425 169 -595 192 -142
19 -408 27 -515 16z m-485 -4505 c16 -19 -6 -69 -42 -93 -13 -10 -55 -50 -93
-91 -65 -70 -160 -155 -368 -330 -102 -86 -286 -276 -330 -341 -31 -47 -36
-52 -140 -161 -81 -85 -221 -269 -337 -444 -178 -268 -336 -640 -361 -849 -14
-123 -6 -386 15 -481 20 -86 83 -219 124 -261 l31 -31 154 -7 c85 -4 768 -6
1518 -6 750 0 1644 1 1987 0 l622 0 0 -107 c0 -288 -49 -582 -146 -873 -56
-167 -196 -428 -295 -552 -149 -185 -378 -397 -514 -475 -475 -273 -721 -341
-1350 -374 -339 -18 -524 -1 -780 70 -294 82 -454 144 -747 291 -42 21 -79 36
-82 33 -3 -4 -6 -1 -6 5 0 9 -88 71 -197 138 -39 24 -262 214 -362 309 -130
124 -262 301 -357 479 -74 139 -163 390 -218 616 -63 260 -72 774 -20 1140 58
411 272 1017 460 1305 48 75 172 238 280 371 222 272 543 498 879 619 224 81
373 111 566 114 75 1 99 -2 109 -14z"/>
<path d="M6635 9161 c-351 -140 -582 -310 -809 -592 -55 -70 -128 -169 -160
-220 -33 -52 -81 -127 -108 -168 -42 -65 -86 -149 -142 -273 -86 -192 -198
-585 -248 -873 -20 -119 -22 -162 -23 -510 0 -328 2 -392 18 -470 57 -281 189
-614 324 -820 185 -280 456 -510 822 -697 189 -97 523 -243 600 -263 74 -18
245 -53 351 -71 119 -19 571 -19 750 1 209 23 396 65 508 113 37 16 92 37 122
47 140 44 328 145 465 249 350 265 608 681 691 1112 21 111 44 310 44 380 l0
61 -67 6 c-38 4 -976 7 -2086 7 l-2018 0 -30 33 c-89 95 -161 207 -196 305
-53 145 -83 427 -64 590 46 399 230 774 644 1315 175 230 494 579 652 715 33
28 53 51 45 51 -8 0 -46 -12 -85 -28z m-145 -129 c0 -4 -23 -30 -51 -57 -69
-68 -309 -341 -405 -461 -209 -262 -462 -656 -547 -850 -101 -232 -148 -427
-154 -650 -12 -374 73 -640 262 -826 44 -43 53 -47 109 -52 34 -3 965 -8 2071
-11 1105 -3 2013 -9 2017 -13 8 -8 -15 -219 -37 -335 -84 -445 -291 -806 -615
-1074 -278 -230 -591 -362 -1035 -437 -153 -26 -470 -49 -580 -41 -285 19
-509 62 -796 156 -138 44 -505 234 -652 336 -188 131 -429 362 -522 501 -66
97 -155 251 -176 304 -69 170 -130 370 -166 544 -26 124 -27 141 -27 444 -1
330 4 377 56 655 26 138 98 403 150 555 53 151 178 405 273 555 202 314 454
567 716 717 81 46 109 57 109 40z"/>
</g>
</svg>
